<svg width="1392" height="841" viewBox="0 0 1392 841" fill="none" xmlns="http://www.w3.org/2000/svg">
<g clip-path="url(#clip0_1460_5575)">
<rect width="1392" height="841" fill="#F6F7F9"/>
<g style="mix-blend-mode:multiply">
<g filter="url(#filter0_f_1460_5575)">
<path d="M460.49 -82.4053C463.026 -89.2108 472.637 -89.1819 475.129 -82.415L475.131 -82.4111C527.378 58.7407 638.108 170.232 778.71 223.429L782.036 224.675C788.833 227.215 788.802 236.831 782.041 239.324L782.036 239.325C639.857 292.014 527.791 404.145 475.133 546.405C472.597 553.211 462.985 553.182 460.493 546.415L460.492 546.411L459.247 543.082C406.082 402.401 294.659 291.605 153.591 239.327H153.592C146.79 236.789 146.819 227.169 153.582 224.676L153.586 224.675C295.765 171.986 407.832 59.8554 460.49 -82.4053Z" stroke="url(#paint0_linear_1460_5575)" stroke-width="5"/>
<path d="M460.49 -82.4053C463.026 -89.2108 472.637 -89.1819 475.129 -82.415L475.131 -82.4111C527.378 58.7407 638.108 170.232 778.71 223.429L782.036 224.675C788.833 227.215 788.802 236.831 782.041 239.324L782.036 239.325C639.857 292.014 527.791 404.145 475.133 546.405C472.597 553.211 462.985 553.182 460.493 546.415L460.492 546.411L459.247 543.082C406.082 402.401 294.659 291.605 153.591 239.327H153.592C146.79 236.789 146.819 227.169 153.582 224.676L153.586 224.675C295.765 171.986 407.832 59.8554 460.49 -82.4053Z" stroke="url(#paint1_linear_1460_5575)" stroke-width="5"/>
</g>
<g filter="url(#filter1_f_1460_5575)">
<path d="M573.964 -82.4102C576.508 -89.2118 586.136 -89.1805 588.632 -82.4141L588.634 -82.4092C640.96 58.7432 751.858 170.234 892.671 223.43L896.003 224.675C902.811 227.216 902.78 236.83 896.007 239.323L896.003 239.325C753.61 292.013 641.374 404.143 588.636 546.404C586.095 553.211 576.462 553.182 573.966 546.414L573.965 546.409L572.718 543.081C519.472 402.399 407.88 291.604 266.6 239.327H266.601C259.787 236.789 259.816 227.171 266.591 224.677L266.596 224.675C408.99 171.986 521.227 59.8537 573.964 -82.4102Z" stroke="url(#paint2_linear_1460_5575)" stroke-width="5"/>
<path d="M573.964 -82.4102C576.508 -89.2118 586.136 -89.1805 588.632 -82.4141L588.634 -82.4092C640.96 58.7432 751.858 170.234 892.671 223.43L896.003 224.675C902.811 227.216 902.78 236.83 896.007 239.323L896.003 239.325C753.61 292.013 641.374 404.143 588.636 546.404C586.095 553.211 576.462 553.182 573.966 546.414L573.965 546.409L572.718 543.081C519.472 402.399 407.88 291.604 266.6 239.327H266.601C259.787 236.789 259.816 227.171 266.591 224.677L266.596 224.675C408.99 171.986 521.227 59.8537 573.964 -82.4102Z" stroke="url(#paint3_linear_1460_5575)" stroke-width="5"/>
</g>
<g filter="url(#filter2_f_1460_5575)">
<path d="M687.964 -82.4102C690.508 -89.2118 700.136 -89.1805 702.632 -82.4141L702.634 -82.4092C754.96 58.7432 865.858 170.234 1006.67 223.43L1010 224.675C1016.81 227.216 1016.78 236.83 1010.01 239.323L1010 239.325C867.61 292.013 755.374 404.143 702.636 546.404C700.095 553.211 690.462 553.182 687.966 546.414L687.965 546.409L686.718 543.081C633.472 402.399 521.88 291.604 380.6 239.327H380.601C373.787 236.789 373.816 227.171 380.591 224.677L380.596 224.675C522.99 171.986 635.227 59.8537 687.964 -82.4102Z" stroke="url(#paint4_linear_1460_5575)" stroke-width="5"/>
<path d="M687.964 -82.4102C690.508 -89.2118 700.136 -89.1805 702.632 -82.4141L702.634 -82.4092C754.96 58.7432 865.858 170.234 1006.67 223.43L1010 224.675C1016.81 227.216 1016.78 236.83 1010.01 239.323L1010 239.325C867.61 292.013 755.374 404.143 702.636 546.404C700.095 553.211 690.462 553.182 687.966 546.414L687.965 546.409L686.718 543.081C633.472 402.399 521.88 291.604 380.6 239.327H380.601C373.787 236.789 373.816 227.171 380.591 224.677L380.596 224.675C522.99 171.986 635.227 59.8537 687.964 -82.4102Z" stroke="url(#paint5_linear_1460_5575)" stroke-width="5"/>
</g>
<g filter="url(#filter3_f_1460_5575)">
<path d="M801.964 -82.4102C804.508 -89.2118 814.136 -89.1805 816.632 -82.4141L816.634 -82.4092C868.96 58.7432 979.858 170.234 1120.67 223.43L1124 224.675C1130.81 227.216 1130.78 236.83 1124.01 239.323L1124 239.325C981.61 292.013 869.374 404.143 816.636 546.404C814.095 553.211 804.462 553.182 801.966 546.414L801.965 546.409L800.718 543.081C747.472 402.399 635.88 291.604 494.6 239.327H494.601C487.787 236.789 487.816 227.171 494.591 224.677L494.596 224.675C636.99 171.986 749.227 59.8537 801.964 -82.4102Z" stroke="url(#paint6_linear_1460_5575)" stroke-width="5"/>
<path d="M801.964 -82.4102C804.508 -89.2118 814.136 -89.1805 816.632 -82.4141L816.634 -82.4092C868.96 58.7432 979.858 170.234 1120.67 223.43L1124 224.675C1130.81 227.216 1130.78 236.83 1124.01 239.323L1124 239.325C981.61 292.013 869.374 404.143 816.636 546.404C814.095 553.211 804.462 553.182 801.966 546.414L801.965 546.409L800.718 543.081C747.472 402.399 635.88 291.604 494.6 239.327H494.601C487.787 236.789 487.816 227.171 494.591 224.677L494.596 224.675C636.99 171.986 749.227 59.8537 801.964 -82.4102Z" stroke="url(#paint7_linear_1460_5575)" stroke-width="5"/>
</g>
<g filter="url(#filter4_f_1460_5575)">
<path d="M915.49 -82.4053C918.026 -89.2108 927.637 -89.1819 930.129 -82.415L930.131 -82.4111C982.378 58.7407 1093.11 170.232 1233.71 223.429L1237.04 224.675C1243.83 227.215 1243.8 236.831 1237.04 239.324L1237.04 239.325C1094.86 292.014 982.791 404.145 930.133 546.405C927.597 553.211 917.985 553.182 915.493 546.415L915.492 546.411L914.247 543.082C861.082 402.401 749.659 291.605 608.591 239.327H608.592C601.79 236.789 601.819 227.169 608.582 224.676L608.586 224.675C750.765 171.986 862.832 59.8554 915.49 -82.4053Z" stroke="url(#paint8_linear_1460_5575)" stroke-width="5"/>
<path d="M915.49 -82.4053C918.026 -89.2108 927.637 -89.1819 930.129 -82.415L930.131 -82.4111C982.378 58.7407 1093.11 170.232 1233.71 223.429L1237.04 224.675C1243.83 227.215 1243.8 236.831 1237.04 239.324L1237.04 239.325C1094.86 292.014 982.791 404.145 930.133 546.405C927.597 553.211 917.985 553.182 915.493 546.415L915.492 546.411L914.247 543.082C861.082 402.401 749.659 291.605 608.591 239.327H608.592C601.79 236.789 601.819 227.169 608.582 224.676L608.586 224.675C750.765 171.986 862.832 59.8554 915.49 -82.4053Z" stroke="url(#paint9_linear_1460_5575)" stroke-width="5"/>
</g>
</g>
</g>
<defs>
<filter id="filter0_f_1460_5575" x="129" y="-107" width="677.623" height="678" filterUnits="userSpaceOnUse" color-interpolation-filters="sRGB">
<feFlood flood-opacity="0" result="BackgroundImageFix"/>
<feBlend mode="normal" in="SourceGraphic" in2="BackgroundImageFix" result="shape"/>
<feGaussianBlur stdDeviation="8.5" result="effect1_foregroundBlur_1460_5575"/>
</filter>
<filter id="filter1_f_1460_5575" x="242" y="-107" width="678.598" height="678" filterUnits="userSpaceOnUse" color-interpolation-filters="sRGB">
<feFlood flood-opacity="0" result="BackgroundImageFix"/>
<feBlend mode="normal" in="SourceGraphic" in2="BackgroundImageFix" result="shape"/>
<feGaussianBlur stdDeviation="8.5" result="effect1_foregroundBlur_1460_5575"/>
</filter>
<filter id="filter2_f_1460_5575" x="356" y="-107" width="678.598" height="678" filterUnits="userSpaceOnUse" color-interpolation-filters="sRGB">
<feFlood flood-opacity="0" result="BackgroundImageFix"/>
<feBlend mode="normal" in="SourceGraphic" in2="BackgroundImageFix" result="shape"/>
<feGaussianBlur stdDeviation="8.5" result="effect1_foregroundBlur_1460_5575"/>
</filter>
<filter id="filter3_f_1460_5575" x="470" y="-107" width="678.598" height="678" filterUnits="userSpaceOnUse" color-interpolation-filters="sRGB">
<feFlood flood-opacity="0" result="BackgroundImageFix"/>
<feBlend mode="normal" in="SourceGraphic" in2="BackgroundImageFix" result="shape"/>
<feGaussianBlur stdDeviation="8.5" result="effect1_foregroundBlur_1460_5575"/>
</filter>
<filter id="filter4_f_1460_5575" x="584" y="-107" width="677.623" height="678" filterUnits="userSpaceOnUse" color-interpolation-filters="sRGB">
<feFlood flood-opacity="0" result="BackgroundImageFix"/>
<feBlend mode="normal" in="SourceGraphic" in2="BackgroundImageFix" result="shape"/>
<feGaussianBlur stdDeviation="8.5" result="effect1_foregroundBlur_1460_5575"/>
</filter>
<linearGradient id="paint0_linear_1460_5575" x1="146" y1="232" x2="789.623" y2="232" gradientUnits="userSpaceOnUse">
<stop stop-color="#8C4FE2"/>
<stop offset="0.5" stop-color="#446CFF"/>
<stop offset="1" stop-color="#1EDFDE"/>
</linearGradient>
<linearGradient id="paint1_linear_1460_5575" x1="467.811" y1="-90" x2="480" y2="248" gradientUnits="userSpaceOnUse">
<stop stop-color="white" stop-opacity="0"/>
<stop offset="1" stop-color="white"/>
</linearGradient>
<linearGradient id="paint2_linear_1460_5575" x1="581.299" y1="554" x2="581.299" y2="-90" gradientUnits="userSpaceOnUse">
<stop stop-color="#8C4FE2"/>
<stop offset="0.5" stop-color="#446CFF"/>
<stop offset="1" stop-color="#1EDFDE"/>
</linearGradient>
<linearGradient id="paint3_linear_1460_5575" x1="581.299" y1="-90" x2="581.399" y2="269.5" gradientUnits="userSpaceOnUse">
<stop stop-color="white" stop-opacity="0"/>
<stop offset="1" stop-color="white"/>
</linearGradient>
<linearGradient id="paint4_linear_1460_5575" x1="373" y1="232" x2="1017.6" y2="232" gradientUnits="userSpaceOnUse">
<stop stop-color="#8C4FE2"/>
<stop offset="0.5" stop-color="#446CFF"/>
<stop offset="1" stop-color="#1EDFDE"/>
</linearGradient>
<linearGradient id="paint5_linear_1460_5575" x1="695.299" y1="-90" x2="695.799" y2="263" gradientUnits="userSpaceOnUse">
<stop stop-color="white" stop-opacity="0"/>
<stop offset="1" stop-color="white"/>
</linearGradient>
<linearGradient id="paint6_linear_1460_5575" x1="809.299" y1="-90" x2="809.299" y2="554" gradientUnits="userSpaceOnUse">
<stop stop-color="#1EDFDE"/>
<stop offset="0.5" stop-color="#446CFF"/>
<stop offset="1" stop-color="#8C4FE2"/>
</linearGradient>
<linearGradient id="paint7_linear_1460_5575" x1="809.299" y1="-90" x2="809.199" y2="216" gradientUnits="userSpaceOnUse">
<stop stop-color="white" stop-opacity="0"/>
<stop offset="1" stop-color="white"/>
</linearGradient>
<linearGradient id="paint8_linear_1460_5575" x1="601" y1="232" x2="1244.62" y2="232" gradientUnits="userSpaceOnUse">
<stop stop-color="#8C4FE2"/>
<stop offset="0.5" stop-color="#446CFF"/>
<stop offset="1" stop-color="#1EDFDE"/>
</linearGradient>
<linearGradient id="paint9_linear_1460_5575" x1="922.811" y1="-90" x2="922.623" y2="295" gradientUnits="userSpaceOnUse">
<stop stop-color="white" stop-opacity="0"/>
<stop offset="1" stop-color="white"/>
</linearGradient>
<clipPath id="clip0_1460_5575">
<rect width="1392" height="841" fill="white"/>
</clipPath>
</defs>
</svg>
